<svg width="770" height="374" fill="none" xmlns="http://www.w3.org/2000/svg"><path d="M22.616 89.557c1.858-6.935 8.987-11.05 15.922-9.192l15.867 4.251c6.934 1.858 11.05 8.987 9.192 15.922l-4.252 15.866c-1.858 6.936-8.986 11.051-15.921 9.193l-15.867-4.252c-6.935-1.858-11.05-8.986-9.192-15.921l4.251-15.867z" fill="#F25822" fill-opacity=".46"/><path d="M660.483 314.759a12 12 0 0112.266-6.968l17.719 1.986a12 12 0 0110.417 9.512l3.586 17.466a11.999 11.999 0 01-5.827 12.847l-15.503 8.808a12 12 0 01-14.019-1.572l-13.167-12.023a11.998 11.998 0 01-2.837-13.818l7.365-16.238z" fill="#149211" fill-opacity=".3"/><path d="M720 25c0-13.807 11.193-25 25-25s25 11.193 25 25v15c0 5.523-4.477 10-10 10h-15c-13.807 0-25-11.193-25-25z" fill="#F25822" fill-opacity=".46"/></svg>