<svg width="100" height="100" viewBox="0 0 100 100" fill="none" xmlns="http://www.w3.org/2000/svg">
<circle cx="50" cy="50" r="50" fill="#FCD5C8"/>
<path d="M66.6667 50C66.6667 47.8113 66.2356 45.6441 65.398 43.622C64.5604 41.5999 63.3328 39.7626 61.7851 38.2149C60.2375 36.6673 58.4002 35.4396 56.3781 34.602C54.356 33.7645 52.1887 33.3334 50 33.3334C45.5797 33.3334 41.3405 35.0893 38.2149 38.2149C35.0893 41.3405 33.3333 45.5798 33.3333 50C33.3333 54.4203 35.0893 58.6595 38.2149 61.7852C41.3405 64.9108 45.5797 66.6667 50 66.6667C54.4203 66.6667 58.6595 64.9108 61.7851 61.7852C64.9107 58.6595 66.6667 54.4203 66.6667 50ZM63.2167 48.3334H58.3333C58.0585 44.4136 56.7155 40.644 54.45 37.4334C56.7775 38.26 58.8296 39.7168 60.3775 41.6414C61.9254 43.5661 62.9084 45.8828 63.2167 48.3334ZM45.1333 51.6667H55C54.5735 55.7843 52.8184 59.6513 50 62.6834C47.1835 59.664 45.4687 55.7822 45.1333 51.6667ZM45.1333 48.3334C45.5215 44.2364 47.2293 40.3762 50 37.3334C52.8412 40.3436 54.6002 44.2134 55 48.3334H45.1333ZM45.7333 37.3834C43.4559 40.6117 42.0913 44.3946 41.7833 48.3334H36.7833C37.0982 45.8525 38.1044 43.5102 39.687 41.574C41.2696 39.6377 43.3648 38.1856 45.7333 37.3834ZM36.7833 51.6667H41.7833C42.0578 55.6022 43.4131 59.3855 45.7 62.6C43.34 61.7939 41.2533 60.342 39.6771 58.4093C38.1009 56.4767 37.0984 54.1407 36.7833 51.6667ZM54.3667 62.5834C56.6474 59.3678 58.0178 55.5963 58.3333 51.6667H63.25C62.9348 54.1338 61.9359 56.4635 60.3661 58.3926C58.7963 60.3218 56.7182 61.7733 54.3667 62.5834Z" fill="#F25822"/>
</svg>
