<svg width="14" height="14" viewBox="0 0 14 14" fill="none" xmlns="http://www.w3.org/2000/svg">
<path d="M7.00007 12.25C6.9233 12.2505 6.84719 12.2357 6.77612 12.2067C6.70505 12.1777 6.64041 12.1349 6.5859 12.0808L2.0534 7.54251C1.48486 6.96803 1.16595 6.19242 1.16595 5.38418C1.16595 4.57593 1.48486 3.80032 2.0534 3.22584C2.62639 2.65447 3.40255 2.33362 4.21173 2.33362C5.02092 2.33362 5.79708 2.65447 6.37007 3.22584L7.00007 3.85584L7.63007 3.22584C8.20305 2.65447 8.97922 2.33362 9.7884 2.33362C10.5976 2.33362 11.3737 2.65447 11.9467 3.22584C12.5153 3.80032 12.8342 4.57593 12.8342 5.38418C12.8342 6.19242 12.5153 6.96803 11.9467 7.54251L7.41423 12.0808C7.35973 12.1349 7.29508 12.1777 7.22401 12.2067C7.15294 12.2357 7.07684 12.2505 7.00007 12.25Z" fill="#F25822"/>
</svg>
