<svg width="70" height="70" fill="none" xmlns="http://www.w3.org/2000/svg"><rect width="70" height="70" rx="15" fill="#149211" fill-opacity=".28"/><path d="M34.573 46.958a1.043 1.043 0 01-.882-.492 1.041 1.041 0 01-.15-.664l.803-7.385h-6.136a1.042 1.042 0 01-.864-1.625L35.562 24.5a1.042 1.042 0 011.22-.396 1.042 1.042 0 01.676 1.042l-.802 7.437h6.136a1.042 1.042 0 01.864 1.625L35.438 46.5a1.042 1.042 0 01-.865.458zm-4.417-10.625H35.5a1.041 1.041 0 011.031 1.157l-.468 4.322 4.78-7.145H35.5a1.041 1.041 0 01-1.042-1.157l.47-4.323-4.772 7.146z" fill="#149211"/></svg>