<svg width="70" height="70" fill="none" xmlns="http://www.w3.org/2000/svg"><rect width="70" height="70" rx="15" fill="#FFCD1D" fill-opacity=".24"/><path d="M36.406 45.917c-.503 0-.985-.2-1.343-.552l-6.678-6.688a1.042 1.042 0 01-.302-.635l-.916-9.74a1.04 1.04 0 01.302-.833 1.041 1.041 0 01.833-.302l9.74.916c.24.024.465.131.635.303l6.688 6.677a1.896 1.896 0 010 2.677l-7.625 7.625a1.895 1.895 0 01-1.334.552zm-6.25-8.448l6.25 6.25 7.344-7.344-6.25-6.25-8.135-.76.791 8.104z" fill="#FFC700"/><path d="M33.938 35.5a1.563 1.563 0 100-3.125 1.563 1.563 0 000 3.125z" fill="#FFC700"/></svg>