<svg width="20" height="20" viewBox="0 0 20 20" fill="none" xmlns="http://www.w3.org/2000/svg">
<circle cx="10" cy="10" r="10" fill="#F25822"/>
<path d="M11.7917 6.60511C11.7917 6.54433 11.7675 6.48604 11.7245 6.44306C11.6816 6.40008 11.6233 6.37594 11.5625 6.37594H10.4167C9.83968 6.3472 9.27477 6.54799 8.84537 6.93446C8.41597 7.32092 8.15698 7.86163 8.125 8.43844V9.67594H6.97917C6.91839 9.67594 6.8601 9.70008 6.81712 9.74306C6.77414 9.78604 6.75 9.84433 6.75 9.90511V11.0968C6.75 11.1576 6.77414 11.2158 6.81712 11.2588C6.8601 11.3018 6.91839 11.3259 6.97917 11.3259H8.125V14.3968C8.125 14.4576 8.14914 14.5158 8.19212 14.5588C8.2351 14.6018 8.29339 14.6259 8.35417 14.6259H9.72917C9.78994 14.6259 9.84823 14.6018 9.89121 14.5588C9.93419 14.5158 9.95833 14.4576 9.95833 14.3968V11.3259H11.1592C11.2101 11.3267 11.2599 11.3104 11.3006 11.2797C11.3412 11.249 11.3705 11.2056 11.3837 11.1564L11.7137 9.96469C11.7229 9.93083 11.7241 9.89533 11.7173 9.86092C11.7106 9.82651 11.696 9.79411 11.6748 9.76622C11.6535 9.73833 11.6261 9.71568 11.5947 9.70003C11.5634 9.68438 11.5288 9.67614 11.4937 9.67594H9.95833V8.43844C9.96973 8.32499 10.023 8.21987 10.1078 8.14359C10.1925 8.06732 10.3026 8.02537 10.4167 8.02594H11.5625C11.6233 8.02594 11.6816 8.0018 11.7245 7.95882C11.7675 7.91584 11.7917 7.85755 11.7917 7.79677V6.60511Z" fill="white"/>
</svg>
