<svg width="11" height="11" viewBox="0 0 11 11" fill="none" xmlns="http://www.w3.org/2000/svg">
<path d="M7.79167 1.60511C7.79167 1.54433 7.76752 1.48604 7.72454 1.44306C7.68157 1.40008 7.62328 1.37594 7.5625 1.37594H6.41667C5.83968 1.3472 5.27477 1.54799 4.84537 1.93446C4.41597 2.32092 4.15698 2.86163 4.125 3.43844V4.67594H2.97917C2.91839 4.67594 2.8601 4.70008 2.81712 4.74306C2.77414 4.78604 2.75 4.84433 2.75 4.90511V6.09677C2.75 6.15755 2.77414 6.21584 2.81712 6.25882C2.8601 6.3018 2.91839 6.32594 2.97917 6.32594H4.125V9.39677C4.125 9.45755 4.14914 9.51584 4.19212 9.55882C4.2351 9.6018 4.29339 9.62594 4.35417 9.62594H5.72917C5.78994 9.62594 5.84823 9.6018 5.89121 9.55882C5.93419 9.51584 5.95833 9.45755 5.95833 9.39677V6.32594H7.15917C7.21013 6.32667 7.25988 6.3104 7.30055 6.27968C7.34123 6.24897 7.3705 6.20557 7.38375 6.15636L7.71375 4.96469C7.72287 4.93083 7.72409 4.89533 7.71733 4.86092C7.71057 4.82651 7.696 4.79411 7.67475 4.76622C7.6535 4.73833 7.62613 4.71568 7.59475 4.70003C7.56337 4.68438 7.52882 4.67614 7.49375 4.67594H5.95833V3.43844C5.96973 3.32499 6.02301 3.21987 6.10776 3.14359C6.19251 3.06732 6.30265 3.02537 6.41667 3.02594H7.5625C7.62328 3.02594 7.68157 3.0018 7.72454 2.95882C7.76752 2.91584 7.79167 2.85755 7.79167 2.79677V1.60511Z" fill="white"/>
</svg>
