<svg width="11" height="11" viewBox="0 0 11 11" fill="none" xmlns="http://www.w3.org/2000/svg">
<path d="M3.70332 9.16668C4.38106 9.18935 5.05646 9.07594 5.68962 8.83315C6.32278 8.59035 6.90084 8.2231 7.38965 7.75309C7.87846 7.28308 8.26809 6.71986 8.53552 6.09671C8.80295 5.47355 8.94275 4.80311 8.94666 4.12501C9.25725 3.74066 9.48787 3.2981 9.62499 2.82334C9.63522 2.78583 9.6344 2.74617 9.62261 2.70911C9.61082 2.67206 9.58858 2.63921 9.55855 2.61451C9.52852 2.58981 9.49199 2.57432 9.45337 2.5699C9.41474 2.56548 9.37565 2.57232 9.34082 2.58959C9.17833 2.66781 8.9954 2.69307 8.81779 2.66183C8.64019 2.63058 8.47686 2.5444 8.35082 2.41543C8.18992 2.23923 7.9953 2.09713 7.77848 1.99753C7.56165 1.89793 7.32704 1.84287 7.08855 1.8356C6.85006 1.82834 6.61253 1.86902 6.39005 1.95523C6.16756 2.04144 5.96465 2.17144 5.79332 2.33751C5.55875 2.56469 5.38693 2.84868 5.29457 3.1619C5.20221 3.47512 5.19245 3.80691 5.26624 4.12501C3.73082 4.21668 2.67666 3.48793 1.83332 2.48876C1.80799 2.46007 1.77484 2.43938 1.73794 2.42921C1.70104 2.41904 1.66198 2.41984 1.62552 2.4315C1.58907 2.44317 1.5568 2.4652 1.53266 2.4949C1.50852 2.5246 1.49354 2.56069 1.48957 2.59876C1.32891 3.48995 1.44481 4.40897 1.82169 5.23238C2.19857 6.05578 2.81839 6.74414 3.59791 7.20501C3.07524 7.80443 2.34125 8.17881 1.54916 8.25001C1.50672 8.25705 1.46755 8.27718 1.43712 8.30758C1.40669 8.33799 1.38653 8.37714 1.37945 8.41957C1.37238 8.462 1.37875 8.50558 1.39768 8.54421C1.4166 8.58284 1.44713 8.61459 1.48499 8.63501C2.1741 8.97939 2.93297 9.16126 3.70332 9.16668Z" fill="#AAAAAA"/>
</svg>
